<svg xmlns="http://www.w3.org/2000/svg" width="104" height="34" class="c-nav__logo" viewBox="0 0 2411.27 785.81"><g fill="#1d252d"><path d="M181.9 784.33h88.66v-11.16h-76.58v-47.53h69.2v-10.79h-69.2v-47.34h76.58v-11.16H181.9v127.97ZM350.33 654.15c-35.98 0-64.17 28.75-64.17 65.46s28.19 65.28 64.17 65.28c25.75 0 47.94-15.01 58.05-39.22l-11.75-3.19c-8.33 19.35-25.6 30.89-46.3 30.89-29.21 0-52.09-23.61-52.09-53.75 0-15.2 5.62-29.16 15.83-39.3 9.5-9.45 22.25-14.63 35.93-14.63h.34c20.51 0 37.78 11.67 46.29 31.25l11.75-3.36c-10.26-24.33-32.45-39.42-58.05-39.42ZM518.68 784.33h12.08V656.36h-12.08v58.5h-78.16v-58.5h-12.08v127.97h12.08v-58.5h78.16v58.5ZM674.57 784.33h12.08v-80.48h-12.08v80.48ZM682.28 656.37H599.52v12.07h162.17v-12.07h-79.41zM75.04 784.33h12.08v-80.48H75.04v80.48ZM82.16 656.37H0v12.07H162.17v-12.07H82.16zM864.29 784.33h13.7l-32.37-51.12.87-.17c18.36-3.52 30.7-18.55 30.7-37.42s-13.55-39.26-39.44-39.26h-54.76v127.97h12.08v-50.01h37.48l.18.28 31.56 49.73Zm-28.93-60.43h-40.28v-56.57h42.68c13.8 0 27.73 8.69 27.73 28.1 0 16.76-12.39 28.47-30.13 28.47ZM912.57 784.33h12.08V656.36h-12.08v127.97ZM961.49 784.33h56.6c25.16 0 40.18-12.81 40.18-34.27 0-16.14-8.17-26.56-24.28-30.97l-1.9-.52 1.87-.63c12.64-4.27 19.89-15.03 19.89-29.51 0-19.77-14.33-32.06-37.41-32.06H961.5v127.97Zm56.04-10.97h-44.34v-49.19h43.05c19.19 0 29.76 8.54 29.76 24.04s-10.38 25.15-28.47 25.15Zm-2.58-59.05H973.2v-46.97h42.86c16.44 0 26.25 8.5 26.25 22.75s-10.74 24.22-27.36 24.22ZM1079.42 784.33h88.66v-11.16h-76.58v-47.53h69.2v-10.79h-69.2v-47.34h76.58v-11.16h-88.66v127.97ZM1188.67 765.48c14.77 13.51 31.05 20.16 49.78 20.33h.59c15.48 0 29.04-4.71 37.29-12.95 5.87-5.87 8.81-13.23 8.75-21.87-.2-18.48-13.2-29.29-43.45-36.14-22.24-5.06-41.44-9.43-41.44-24.95s18.38-24.04 35.67-24.04c15.68 0 32.75 6.61 45.9 17.74v-13.15c-9.21-7.23-24.58-15.74-45.9-15.74-23.06 0-47.56 12.4-47.56 35.38 0 19.7 17.61 27.58 46.03 33.92 27.97 6.53 38.86 14.19 38.86 27.35 0 15.97-17.08 23.12-34 23.12s-34.87-7.57-50.51-21.92v12.93Z" class="c-logo--white"/></g><path fill="#1d252d" d="M195.66 113.64 297.78 373.8H93.55l102.11-260.16Zm15.55-103.15L1.72 541.23 0 545.52h25.82l59.14-150.3h221.41l58.47 150.3h92.44L247.55 12.48l-.79-1.99h-35.55ZM504.91 10.49 674.1 295.9 516.71 545.52h28.51l142.7-226.92 134.81 226.92h94.33L736.69 241.06l38.83-60.46-13.36-23.77-38.63 61.51L599.91 10.49h-95zM1244.77 10.49l-142.7 226.94-134.8-226.94h-94.34l180.37 304.46-38.83 60.46 13.36 23.78 38.61-61.52 123.64 207.85h95l-169.2-285.39 157.4-249.64h-28.51zM1397.26 10.49v535.03h349.61v-21.4h-262.41V284.93h150.86v-21.4h-150.86V31.89h255.61v-21.4h-342.81zM2010.94 235.16c-59.98-25.68-127.95-54.78-127.95-117.19 0-53.34 50.09-93.54 116.52-93.54 72.62 0 127.37 50.28 127.37 116.93v3.15h21.26v-3.15C2148.14 60.77 2078.98 0 1987.26 0c-100.69 0-173.78 63.9-173.78 151.96 0 96.64 85.16 135.22 153.6 166.2l1.21.55c64.79 29.52 125.97 57.39 125.97 115.73 0 53.29-50.15 90.51-121.95 90.51-83.47 0-146.41-53.51-146.41-124.49v-3.15h-21.26v3.15c0 83.92 79.32 149.67 180.58 149.67 106.74 0 181.27-63.11 181.27-153.47 0-94.78-79.07-128.71-155.54-161.51" class="c-logo--white"/><path fill="#ff5200" d="M2268.28 524.14h142.98v21.39h-142.98z"/></svg>